<?xml version="1.0" encoding="UTF-8" standalone="no"?><svg xmlns="http://www.w3.org/2000/svg" xmlns:xlink="http://www.w3.org/1999/xlink" clip-rule="evenodd" stroke-miterlimit="10" viewBox="0 0 301 23"><desc>SVG generated by Keynote</desc><defs></defs><g transform="matrix(1.00, 0.00, -0.00, -1.00, 0.0, 23.0)"><text xml:space="preserve" font-family="HelveticaNeue,Helvetica Neue" font-size="20.0" fill="#858585" transform="matrix(1.00, 0.00, -0.00, -1.00, 0.9, 6.0)">h</text><text xml:space="preserve" font-family="HelveticaNeue,Helvetica Neue" font-size="20.0" fill="#858585" transform="matrix(1.00, 0.00, -0.00, -1.00, 12.1, 6.0)">t</text><text xml:space="preserve" font-family="HelveticaNeue,Helvetica Neue" font-size="20.0" fill="#858585" transform="matrix(1.00, 0.00, -0.00, -1.00, 18.4, 6.0)">t</text><text xml:space="preserve" font-family="HelveticaNeue,Helvetica Neue" font-size="20.0" fill="#858585" transform="matrix(1.00, 0.00, -0.00, -1.00, 24.7, 6.0)">p</text><text xml:space="preserve" font-family="HelveticaNeue,Helvetica Neue" font-size="20.0" fill="#858585" transform="matrix(1.00, 0.00, -0.00, -1.00, 36.5, 6.0)">:</text><text xml:space="preserve" font-family="HelveticaNeue,Helvetica Neue" font-size="20.0" fill="#858585" transform="matrix(1.00, 0.00, -0.00, -1.00, 42.1, 6.0)">/</text><text xml:space="preserve" font-family="HelveticaNeue,Helvetica Neue" font-size="20.0" fill="#858585" transform="matrix(1.00, 0.00, -0.00, -1.00, 48.7, 6.0)">/</text><text xml:space="preserve" font-family="HelveticaNeue,Helvetica Neue" font-size="20.0" fill="#858585" transform="matrix(1.00, 0.00, -0.00, -1.00, 55.4, 6.0)">t</text><text xml:space="preserve" font-family="HelveticaNeue,Helvetica Neue" font-size="20.0" fill="#858585" transform="matrix(1.00, 0.00, -0.00, -1.00, 61.7, 6.0)">i</text><text xml:space="preserve" font-family="HelveticaNeue,Helvetica Neue" font-size="20.0" fill="#858585" transform="matrix(1.00, 0.00, -0.00, -1.00, 66.1, 6.0)">n</text><text xml:space="preserve" font-family="HelveticaNeue,Helvetica Neue" font-size="20.0" fill="#858585" transform="matrix(1.00, 0.00, -0.00, -1.00, 77.3, 6.0)">y</text><text xml:space="preserve" font-family="HelveticaNeue,Helvetica Neue" font-size="20.0" fill="#858585" transform="matrix(1.00, 0.00, -0.00, -1.00, 87.3, 6.0)">u</text><text xml:space="preserve" font-family="HelveticaNeue,Helvetica Neue" font-size="20.0" fill="#858585" transform="matrix(1.00, 0.00, -0.00, -1.00, 98.4, 6.0)">r</text><text xml:space="preserve" font-family="HelveticaNeue,Helvetica Neue" font-size="20.0" fill="#858585" transform="matrix(1.00, 0.00, -0.00, -1.00, 105.0, 6.0)">l</text><text xml:space="preserve" font-family="HelveticaNeue,Helvetica Neue" font-size="20.0" fill="#858585" transform="matrix(1.00, 0.00, -0.00, -1.00, 109.5, 6.0)">.</text><text xml:space="preserve" font-family="HelveticaNeue,Helvetica Neue" font-size="20.0" fill="#858585" transform="matrix(1.00, 0.00, -0.00, -1.00, 115.0, 6.0)">c</text><text xml:space="preserve" font-family="HelveticaNeue,Helvetica Neue" font-size="20.0" fill="#858585" transform="matrix(1.00, 0.00, -0.00, -1.00, 125.8, 6.0)">o</text><text xml:space="preserve" font-family="HelveticaNeue,Helvetica Neue" font-size="20.0" fill="#858585" transform="matrix(1.00, 0.00, -0.00, -1.00, 137.3, 6.0)">m</text><text xml:space="preserve" font-family="HelveticaNeue,Helvetica Neue" font-size="20.0" fill="#858585" transform="matrix(1.00, 0.00, -0.00, -1.00, 154.3, 6.0)">/</text><text xml:space="preserve" font-family="HelveticaNeue,Helvetica Neue" font-size="20.0" fill="#858585" transform="matrix(1.00, 0.00, -0.00, -1.00, 161.0, 6.0)">a</text><text xml:space="preserve" font-family="HelveticaNeue,Helvetica Neue" font-size="20.0" fill="#858585" transform="matrix(1.00, 0.00, -0.00, -1.00, 171.7, 6.0)">l</text><text xml:space="preserve" font-family="HelveticaNeue,Helvetica Neue" font-size="20.0" fill="#858585" transform="matrix(1.00, 0.00, -0.00, -1.00, 176.2, 6.0)">l</text><text xml:space="preserve" font-family="HelveticaNeue,Helvetica Neue" font-size="20.0" fill="#858585" transform="matrix(1.00, 0.00, -0.00, -1.00, 180.6, 6.0)">i</text><text xml:space="preserve" font-family="HelveticaNeue,Helvetica Neue" font-size="20.0" fill="#858585" transform="matrix(1.00, 0.00, -0.00, -1.00, 185.0, 6.0)">e</text><text xml:space="preserve" font-family="HelveticaNeue,Helvetica Neue" font-size="20.0" fill="#858585" transform="matrix(1.00, 0.00, -0.00, -1.00, 195.8, 6.0)">-</text><text xml:space="preserve" font-family="HelveticaNeue,Helvetica Neue" font-size="20.0" fill="#858585" transform="matrix(1.00, 0.00, -0.00, -1.00, 203.6, 6.0)">s</text><text xml:space="preserve" font-family="HelveticaNeue,Helvetica Neue" font-size="20.0" fill="#858585" transform="matrix(1.00, 0.00, -0.00, -1.00, 213.6, 6.0)">h</text><text xml:space="preserve" font-family="HelveticaNeue,Helvetica Neue" font-size="20.0" fill="#858585" transform="matrix(1.00, 0.00, -0.00, -1.00, 224.7, 6.0)">o</text><text xml:space="preserve" font-family="HelveticaNeue,Helvetica Neue" font-size="20.0" fill="#858585" transform="matrix(1.00, 0.00, -0.00, -1.00, 236.2, 6.0)">r</text><text xml:space="preserve" font-family="HelveticaNeue,Helvetica Neue" font-size="20.0" fill="#858585" transform="matrix(1.00, 0.00, -0.00, -1.00, 242.8, 6.0)">t</text><text xml:space="preserve" font-family="HelveticaNeue,Helvetica Neue" font-size="20.0" fill="#858585" transform="matrix(1.00, 0.00, -0.00, -1.00, 249.1, 6.0)">f</text><text xml:space="preserve" font-family="HelveticaNeue,Helvetica Neue" font-size="20.0" fill="#858585" transform="matrix(1.00, 0.00, -0.00, -1.00, 255.0, 6.0)">o</text><text xml:space="preserve" font-family="HelveticaNeue,Helvetica Neue" font-size="20.0" fill="#858585" transform="matrix(1.00, 0.00, -0.00, -1.00, 266.5, 6.0)">r</text><text xml:space="preserve" font-family="HelveticaNeue,Helvetica Neue" font-size="20.0" fill="#858585" transform="matrix(1.00, 0.00, -0.00, -1.00, 273.2, 6.0)">m</text><text xml:space="preserve" font-family="HelveticaNeue,Helvetica Neue" font-size="20.0" fill="#858585" transform="matrix(1.00, 0.00, -0.00, -1.00, 290.2, 6.0)">s</text></g></svg>